<?xml version="1.0" standalone="no"?>
<!DOCTYPE svg PUBLIC "-//W3C//DTD SVG 20010904//EN"
 "http://www.w3.org/TR/2001/REC-SVG-20010904/DTD/svg10.dtd">
<svg version="1.0" xmlns="http://www.w3.org/2000/svg"
 width="24.000000pt" height="24.000000pt" viewBox="0 0 24.000000 24.000000"
 preserveAspectRatio="xMidYMid meet">
<metadata>
Created by potrace 1.10, written by Peter Selinger 2001-2011
</metadata>
<g transform="translate(0.000000,24.000000) scale(0.100000,-0.100000)"
fill="#2a5ba2" stroke="none">
<path d="M49 191 c-41 -41 -41 -101 0 -142 65 -64 171 -20 171 71 0 91 -106
135 -171 71z m132 -10 c39 -40 39 -82 0 -122 -40 -39 -82 -39 -122 0 -20 20
-29 39 -29 61 0 43 47 90 90 90 22 0 41 -9 61 -29z"/>
<path d="M60 125 c0 -32 2 -35 28 -34 23 2 24 2 5 6 -13 2 -23 8 -23 13 0 5
10 11 23 13 l22 4 -22 2 c-13 0 -23 5 -23 10 0 5 10 12 23 14 19 4 18 4 -5 6
-26 1 -28 -2 -28 -34z"/>
<path d="M124 146 c-11 -28 1 -51 27 -54 24 -3 26 0 25 30 -1 26 -6 34 -24 36
-13 2 -24 -3 -28 -12z m44 -21 c3 -10 0 -15 -7 -11 -6 4 -11 2 -11 -5 0 -10
-3 -10 -11 -2 -14 14 -3 46 14 41 6 -3 14 -13 15 -23z"/>
</g>
</svg>
